<?xml version="1.0" standalone="no"?><!DOCTYPE svg PUBLIC "-//W3C//DTD SVG 1.1//EN" "http://www.w3.org/Graphics/SVG/1.1/DTD/svg11.dtd"><svg t="1684496791745" class="icon" viewBox="0 0 1024 1024" version="1.1" xmlns="http://www.w3.org/2000/svg" p-id="2261" xmlns:xlink="http://www.w3.org/1999/xlink" width="200" height="200"><path d="M241.536 685.12c11.008-12.672-6.08-12.544 12.864-63.36 19.008-50.944 89.6-168.96 228.544-308.224 6.4-6.4 29.056-27.776 68.032-64.256 20.928-15.744 32.768-24.896 35.584-27.392 12.288-11.008 38.08-30.4 49.472-38.4C739.328 111.616 847.36 71.808 960 64c-31.168 180.992-77.056 305.664-137.6 374.016-1.024 1.088-23.936 16.96-65.664 31.872-27.84 9.984-48.576 16-62.208 18.176 16.32 5.12 31.36 7.68 45.056 7.68 13.696 0 30.784-2.56 51.392-7.68-49.664 52.864-85.76 88.704-108.16 107.456-33.664 28.16-67.2 40.576-83.392 51.008-2.88 1.792-29.184 11.392-79.04 28.672 54.72-2.112 81.088-2.112 79.04 0-95.744 96.704-226.176 57.216-304.128 73.664-2.816 0.64 28.544-17.472 74.688-55.36 48-39.36 92.608-81.152 150.4-164.48 21.504-31.04 88.832-98.816 201.856-203.328-89.6 53.952-166.912 115.456-231.872 184.384C425.408 579.072 283.264 729.024 64 960c11.008-59.136 70.144-150.784 177.536-274.88zM512 897.088c99.84 0 249.216 20.992 448 62.912H64c198.784-41.92 348.16-62.912 448-62.912z" p-id="2262"></path></svg>